<svg class="data-cloud" data-name="data-cloud" xmlns="http://www.w3.org/2000/svg" viewBox="0 0 201.01 156.4">
  <g class="database">
    <g class="database-stack">
      <g class="database-stack-front">
        <path d="M326.06,405.9l0,7.12c0,2.92-1.93,5.85-5.77,8.08-7.74,4.49-20.32,4.49-28.11,0-3.91-2.26-5.87-5.23-5.86-8.19l0-7.12c0,3,1.95,5.93,5.86,8.19,7.79,4.5,20.37,4.5,28.11,0,3.84-2.23,5.76-5.15,5.77-8.08Z" transform="translate(-148.07 -268.58)" />
      </g>
      <g class="database-stack-top">
        <path d="M320.2,397.71c7.78,4.49,7.82,11.78.09,16.27s-20.32,4.5-28.11,0-7.82-11.77-.08-16.27S312.42,393.21,320.2,397.71Z" transform="translate(-148.07 -268.58)" />
      </g>
    </g>
    <g class="database-stack" data-name="database-stack">
      <g class="database-stack-front" data-name="database-stack-front">
        <path d="M326.06,397.08l0,7.11c0,2.93-1.93,5.85-5.77,8.09-7.74,4.49-20.32,4.49-28.11,0-3.91-2.26-5.87-5.23-5.86-8.19l0-7.12c0,3,1.95,5.93,5.86,8.19,7.79,4.5,20.37,4.5,28.11,0,3.84-2.23,5.76-5.15,5.77-8.08Z" transform="translate(-148.07 -268.58)" />
      </g>
      <g class="database-stack-top" data-name="database-stack-top">
        <path d="M320.2,388.88c7.78,4.5,7.82,11.79.09,16.28s-20.32,4.5-28.11,0-7.82-11.78-.08-16.27S312.42,384.39,320.2,388.88Z" transform="translate(-148.07 -268.58)" />
      </g>
    </g>
    <g class="database-stack" data-name="database-stack">
      <g class="database-stack-front" data-name="database-stack-front">
        <path d="M326.06,388.26l0,7.11c0,2.93-1.93,5.85-5.77,8.08-7.74,4.5-20.32,4.5-28.11,0-3.91-2.26-5.87-5.22-5.86-8.19l0-7.11c0,3,1.95,5.93,5.86,8.19,7.79,4.49,20.37,4.49,28.11,0,3.84-2.23,5.76-5.16,5.77-8.08Z" transform="translate(-148.07 -268.58)" />
      </g>
      <g class="database-stack-top" data-name="database-stack-top">
        <path d="M320.2,380.06c7.78,4.5,7.82,11.79.09,16.28s-20.32,4.49-28.11,0-7.82-11.78-.08-16.28S312.42,375.57,320.2,380.06Z" transform="translate(-148.07 -268.58)" />
      </g>
    </g>
    <g class="database-stack" data-name="database-stack">
      <g class="database-stack-front" data-name="database-stack-front">
        <path d="M326.06,379.43l0,7.12c0,2.93-1.93,5.85-5.77,8.08-7.74,4.5-20.32,4.5-28.11,0-3.91-2.26-5.87-5.23-5.86-8.19l0-7.11c0,3,1.95,5.93,5.86,8.19,7.79,4.49,20.37,4.49,28.11,0,3.84-2.24,5.76-5.16,5.77-8.09Z" transform="translate(-148.07 -268.58)" />
      </g>
      <g class="database-stack-top" data-name="database-stack-top">
        <path d="M320.2,371.24c7.78,4.49,7.82,11.78.09,16.28s-20.32,4.49-28.11,0-7.82-11.78-.08-16.28S312.42,366.75,320.2,371.24Z" transform="translate(-148.07 -268.58)" />
      </g>
    </g>
    <g class="database-stack" data-name="database-stack">
      <g class="database-stack-front" data-name="database-stack-front">
        <path d="M326.06,370.61l0,7.11c0,2.93-1.93,5.86-5.77,8.09-7.74,4.49-20.32,4.49-28.11,0-3.91-2.26-5.87-5.23-5.86-8.19l0-7.12c0,3,1.95,5.93,5.86,8.19,7.79,4.5,20.37,4.5,28.11,0,3.84-2.23,5.76-5.15,5.77-8.08Z" transform="translate(-148.07 -268.58)" />
      </g>
      <g class="database-stack-top" data-name="database-stack-top">
        <path d="M320.2,362.41c7.78,4.5,7.82,11.79.09,16.28s-20.32,4.5-28.11,0-7.82-11.78-.08-16.27S312.42,357.92,320.2,362.41Z" transform="translate(-148.07 -268.58)" />
      </g>
    </g>
    <g class="database-stack" data-name="database-stack">
      <g class="database-stack-front" data-name="database-stack-front">
        <path d="M326.06,361.79l0,7.11c0,2.93-1.93,5.85-5.77,8.09-7.74,4.49-20.32,4.49-28.11,0-3.91-2.26-5.87-5.23-5.86-8.2l0-7.11c0,3,1.95,5.93,5.86,8.19,7.79,4.5,20.37,4.5,28.11,0,3.84-2.23,5.76-5.15,5.77-8.08Z" transform="translate(-148.07 -268.58)" />
      </g>
      <g class="database-stack-top" data-name="database-stack-top">
        <path d="M320.2,353.59c7.78,4.5,7.82,11.79.09,16.28s-20.32,4.5-28.11,0-7.82-11.78-.08-16.27S312.42,349.1,320.2,353.59Z" transform="translate(-148.07 -268.58)" />
      </g>
    </g>
  </g>
  <g class="cloud">
    <path class="cloud-back" d="M304.47,291.28a20.74,20.74,0,0,0,.11-2.09,19.93,19.93,0,0,0-37.95-8.56,14.61,14.61,0,0,0-18.82,10.43,17.43,17.43,0,0,0,.71,34.84h53.09a17.43,17.43,0,0,0,2.86-34.62Z" transform="translate(-148.07 -268.58)" />
    <path class="cloud-front" d="M334,297.88a20.44,20.44,0,0,0,.11-2.09,19.94,19.94,0,0,0-38-8.56,14.59,14.59,0,0,0-18.81,10.44,17.43,17.43,0,0,0,.71,34.84h53.09A17.43,17.43,0,0,0,334,297.88Z" transform="translate(-148.07 -268.58)" />
    <path class="cog" d="M306.06,292.52l-1.42,4.33a15.33,15.33,0,0,0-3.1,1.28l-4-2-3,3,2,4a15.33,15.33,0,0,0-1.28,3.1l-4.33,1.42V312l4.33,1.42a15.41,15.41,0,0,0,1.28,3.11l-1.92,4,3,3,4-2a15.67,15.67,0,0,0,3.14,1.28l1.38,4.32h4.33l1.41-4.32A15.67,15.67,0,0,0,315,321.5l4,1.92,3-3-2.06-4a15.67,15.67,0,0,0,1.28-3.14l4.22-1.29v-4.32l-4.32-1.42a15.33,15.33,0,0,0-1.28-3.1l1.92-4-3-3-4,2a15.67,15.67,0,0,0-3.14-1.28l-1.28-4.33Zm2.16,9.73a7.57,7.57,0,1,1-7.56,7.56A7.52,7.52,0,0,1,308.22,302.25Z" transform="translate(-148.07 -268.58)" />
  </g>
  <g class="pie-chart">
    <path class="pie-segment-right" d="M200.81,287.79l8.76-6.94a30.36,30.36,0,0,1,4.09,28.63l-10-4.22a19.13,19.13,0,0,0-2.83-17.47Z" transform="translate(-148.07 -268.58)" />
    <path class="pie-segment-top" d="M154.82,297.72A30.37,30.37,0,0,1,208,278.9q-4.4,3.51-8.78,7a19.13,19.13,0,0,0-32.82,11.79" transform="translate(-148.07 -268.58)" />
    <path class="pie-segment-bottom" d="M166.36,300.15a19.14,19.14,0,0,0,36.31,7.5l10,4.21a30.38,30.38,0,0,1-57.85-11.71" transform="translate(-148.07 -268.58)" />
  </g>
  <g class="line-chart">
    <path class="line-chart-line" d="M166.17,414a8,8,0,0,0,8-8,8,8,0,0,0-1.7-4.89l10.77-15.38a8.39,8.39,0,0,0,1.92.28,8.16,8.16,0,0,0,4.39-1.31l7.65,4.47a8,8,0,0,0,0,.85,8,8,0,1,0,16,0,8,8,0,0,0-1.67-4.93l10.74-15.38a7.08,7.08,0,0,0,2,.29,8,8,0,0,0,8-8,7.8,7.8,0,0,0-8-8,8,8,0,0,0-8,8,7.69,7.69,0,0,0,1.24,4.15L206.25,382a5.45,5.45,0,0,0-1.06-.07,8,8,0,0,0-5.14,1.88L193,379.7a9.85,9.85,0,0,0,.17-1.73,8,8,0,1,0-16,0,7.58,7.58,0,0,0,1.24,4.14L167.24,398a9.57,9.57,0,0,0-1.07,0,8,8,0,1,0,0,16Zm58-54a2,2,0,0,1,0,4,2,2,0,1,1,0-4Zm-19,28a2,2,0,0,1,2,2,2,2,0,0,1-4,0A2,2,0,0,1,205.19,388Zm-20-12a2,2,0,0,1,2,2,2,2,0,0,1-2,2,2,2,0,0,1-2-2A1.94,1.94,0,0,1,185.17,376Zm-19,28a2,2,0,1,1-2,2A1.94,1.94,0,0,1,166.17,404Z" transform="translate(-148.07 -268.58)" />
    <path class="line-chart-axis" d="M148.07,343.47h6v75h85v6h-91" transform="translate(-148.07 -268.58)" />
  </g>
</svg>
