<svg class="monitor-browser" xmlns="http://www.w3.org/2000/svg" viewBox="0 0 303 251.09">
  <g class="monitor">
    <path class="monitor-frame" d="M11.5,1.5h280a10,10,0,0,1,10,10V170.25a0,0,0,0,1,0,0H1.5a0,0,0,0,1,0,0V11.5A10,10,0,0,1,11.5,1.5Z" />
    <path class="monitor-lower" d="M1.5,173.05h300a0,0,0,0,1,0,0v5a10,10,0,0,1-10,10H11.5a10,10,0,0,1-10-10v-5A0,0,0,0,1,1.5,173.05Z" />
    <rect class="monitor-support" x="138.3" y="189.17" width="26.4" height="38.51" />
    <path class="monitor-support" data-name="monitor-support" d="M94.85,227.68h113.3a10,10,0,0,1,10,10v13.42a0,0,0,0,1,0,0H84.85a0,0,0,0,1,0,0V237.68A10,10,0,0,1,94.85,227.68Z" />
  </g>
  <g class="browser">
    <rect class="browser-window" x="8.27" y="10.62" width="286.46" height="151.31" />
    <rect class="browser-window-top" data-name="browser-window" x="8.52" y="11.2" width="285.95" height="15" />
    <circle class="browser-red" cx="19.16" cy="18.7" r="6.25" />
    <circle class="browser-yellow" cx="34.16" cy="18.7" r="6.25" />
    <circle class="browser-green" cx="49.16" cy="18.7" r="6.25" />
    <g class="browser-contents">
      <g class="bar-graph-white">
        <rect class="bar-background" x="29.01" y="37.69" width="61.7" height="105.77" />
        <rect class="bar-white" x="38.12" y="42.85" width="47.74" height="7.5" />
        <rect class="bar-white" data-name="bar-white" x="45.86" y="55.35" width="40" height="7.5" />
        <rect class="bar-white" data-name="bar-white" x="65.86" y="67.85" width="20" height="7.5" />
        <rect class="bar-white" data-name="bar-white" x="35.86" y="80.35" width="50" height="7.5" />
        <rect class="bar-white" data-name="bar-white" x="45.86" y="92.85" width="40" height="7.5" />
        <rect class="bar-white" data-name="bar-white" x="39.81" y="105.35" width="46.05" height="7.5" />
        <rect class="bar-white" data-name="bar-white" x="73.26" y="117.85" width="12.6" height="7.5" />
        <rect class="bar-white" data-name="bar-white" x="78.36" y="130.35" width="7.5" height="7.5" />
      </g>
      <g class="bar-graph-black">
        <rect class="bar-black" x="261.02" y="212.51" width="47.74" height="7.5" transform="translate(415.63 263.09) rotate(-180)" />
        <rect class="bar-black" data-name="bar-black" x="261.02" y="225.01" width="40" height="7.5" transform="translate(407.89 288.09) rotate(-180)" />
        <rect class="bar-black" data-name="bar-black" x="261.02" y="237.51" width="20" height="7.5" transform="translate(387.89 313.09) rotate(-180)" />
        <rect class="bar-black" data-name="bar-black" x="261.02" y="250.01" width="50" height="7.5" transform="translate(417.89 338.09) rotate(-180)" />
        <rect class="bar-black" data-name="bar-black" x="261.02" y="262.51" width="40" height="7.5" transform="translate(407.89 363.09) rotate(-180)" />
        <rect class="bar-black" data-name="bar-black" x="261.02" y="275.01" width="46.05" height="7.5" transform="translate(413.94 388.09) rotate(-180)" />
        <rect class="bar-black" data-name="bar-black" x="261.02" y="287.51" width="12.6" height="7.5" transform="translate(380.49 413.09) rotate(-180)" />
        <rect class="bar-black" data-name="bar-black" x="261.02" y="300.01" width="7.5" height="7.5" transform="translate(375.39 438.09) rotate(-180)" />
      </g>
      <g class="image-caption">
        <rect class="browser-text" x="222.3" y="41.81" width="50" height="1" />
        <rect class="browser-text" data-name="browser-text" x="222.3" y="45.15" width="50" height="1" />
        <rect class="browser-text" data-name="browser-text" x="222.3" y="48.48" width="50" height="1" />
        <rect class="browser-text" data-name="browser-text" x="222.3" y="51.81" width="50" height="1" />
        <rect class="browser-text" data-name="browser-text" x="222.3" y="55.15" width="50" height="1" />
        <rect class="browser-text" data-name="browser-text" x="222.3" y="58.48" width="50" height="1" />
        <rect class="browser-text" data-name="browser-text" x="222.3" y="61.81" width="50" height="1" />
        <rect class="image-rect" x="176.84" y="42.31" width="40" height="20" />
      </g>
      <g class="image-caption" data-name="image-caption">
        <rect class="image-rect" data-name="image-rect" x="385.92" y="243.27" width="40" height="20" transform="translate(657.7 337.11) rotate(-180)" />
        <rect class="browser-text" data-name="browser-text" x="330.47" y="242.77" width="50" height="1" transform="translate(556.79 317.11) rotate(-180)" />
        <rect class="browser-text" data-name="browser-text" x="330.47" y="246.11" width="50" height="1" transform="translate(556.79 323.77) rotate(-180)" />
        <rect class="browser-text" data-name="browser-text" x="330.47" y="249.44" width="50" height="1" transform="translate(556.79 330.44) rotate(-180)" />
        <rect class="browser-text" data-name="browser-text" x="330.47" y="252.77" width="50" height="1" transform="translate(556.79 337.11) rotate(-180)" />
        <rect class="browser-text" data-name="browser-text" x="330.47" y="256.11" width="50" height="1" transform="translate(556.79 343.77) rotate(-180)" />
        <rect class="browser-text" data-name="browser-text" x="330.47" y="259.44" width="50" height="1" transform="translate(556.79 350.44) rotate(-180)" />
        <rect class="browser-text" data-name="browser-text" x="330.47" y="262.77" width="50" height="1" transform="translate(556.79 357.11) rotate(-180)" />
      </g>
      <g class="image-button">
        <circle class="image-circle" cx="184.99" cy="114.86" r="10" />
        <rect class="browser-text" data-name="browser-text" x="329.13" y="298.29" width="20" height="1" transform="translate(524.12 428.14) rotate(-180)" />
        <rect class="browser-text" data-name="browser-text" x="329.13" y="301.79" width="20" height="1" transform="translate(524.12 435.14) rotate(-180)" />
        <rect class="button" x="174.99" y="135.85" width="20" height="5" rx="2" />
      </g>
      <g class="image-button" data-name="image-button">
        <circle class="image-circle" data-name="image-circle" cx="224.49" cy="114.86" r="10" />
        <rect class="browser-text" data-name="browser-text" x="368.63" y="298.29" width="20" height="1" transform="translate(603.12 428.14) rotate(-180)" />
        <rect class="browser-text" data-name="browser-text" x="368.63" y="301.79" width="20" height="1" transform="translate(603.12 435.14) rotate(-180)" />
        <rect class="button" data-name="button" x="214.49" y="135.85" width="20" height="5" rx="2" />
      </g>
      <g class="image-button" data-name="image-button">
        <circle class="image-circle" data-name="image-circle" cx="263.99" cy="114.86" r="10" />
        <rect class="browser-text" data-name="browser-text" x="408.13" y="298.29" width="20" height="1" transform="translate(682.12 428.14) rotate(-180)" />
        <rect class="browser-text" data-name="browser-text" x="408.13" y="301.79" width="20" height="1" transform="translate(682.12 435.14) rotate(-180)" />
        <rect class="button" data-name="button" x="253.99" y="135.85" width="20" height="5" rx="2" />
      </g>
    </g>
  </g>
</svg>
