<svg class="cloud" data-name="cloud" xmlns="http://www.w3.org/2000/svg" viewBox="0 0 119.5 65.27">
  <path class="cloud-back" d="M320.76,386.68a20.44,20.44,0,0,0,.11-2.09A19.94,19.94,0,0,0,282.92,376a14.6,14.6,0,0,0-18.82,10.44,17.43,17.43,0,0,0,.71,34.84H317.9a17.43,17.43,0,0,0,2.86-34.63Z" transform="translate(-246.37 -363.64)" />
  <path class="cloud-front" d="M350.29,393.29a20.59,20.59,0,0,0,.11-2.09,19.94,19.94,0,0,0-38-8.56,14.6,14.6,0,0,0-18.81,10.43,17.43,17.43,0,0,0,.71,34.84h53.09a17.43,17.43,0,0,0,2.86-34.62Z" transform="translate(-246.37 -363.64)" />
</svg>
