<svg class="cloud" data-name="cloud" xmlns="http://www.w3.org/2000/svg" viewBox="0 0 119.5 65.27">
  <path class="cloud-back" d="M320.76,386.68a20.44,20.44,0,0,0,.11-2.09A19.94,19.94,0,0,0,282.92,376a14.6,14.6,0,0,0-18.82,10.44,17.43,17.43,0,0,0,.71,34.84H317.9a17.43,17.43,0,0,0,2.86-34.63Z" transform="translate(-246.37 -363.64)" />
  <path class="cloud-front" d="M350.29,393.29a20.59,20.59,0,0,0,.11-2.09,19.94,19.94,0,0,0-38-8.56,14.6,14.6,0,0,0-18.81,10.43,17.43,17.43,0,0,0,.71,34.84h53.09a17.43,17.43,0,0,0,2.86-34.62Z" transform="translate(-246.37 -363.64)" />
  <!-- <path class="cog" d="M322.35,387.93l-1.42,4.32a16,16,0,0,0-3.1,1.29l-4-2-3,3,2,4a15.66,15.66,0,0,0-1.28,3.11l-4.33,1.42v4.32l4.33,1.42a15.66,15.66,0,0,0,1.28,3.11l-1.92,4,3,3,4-2a16.32,16.32,0,0,0,3.14,1.29l1.38,4.32h4.33l1.41-4.32a16.32,16.32,0,0,0,3.14-1.29l4,1.93,3-3-2.06-4a15.67,15.67,0,0,0,1.28-3.14l4.22-1.28v-4.32l-4.32-1.42a15.66,15.66,0,0,0-1.28-3.11l1.92-4-3-3-4,2a16.32,16.32,0,0,0-3.14-1.29l-1.29-4.32Zm2.16,9.72a7.57,7.57,0,1,1-7.56,7.57A7.52,7.52,0,0,1,324.51,397.65Z" transform="translate(-246.37 -363.64)" /> -->
</svg>
