<svg class="cog" data-name="cog" xmlns="http://www.w3.org/2000/svg" viewBox="0 0 35.58 35.58">
  <path class="cog-path" d="M301.8,371.22l-1.42,4.32a15.93,15.93,0,0,0-3.1,1.28l-4-2-3,3,2,4a16,16,0,0,0-1.29,3.11l-4.32,1.42v4.32l4.32,1.42a16.31,16.31,0,0,0,1.29,3.11l-1.93,4,3,3,4-2a16.32,16.32,0,0,0,3.14,1.29l1.38,4.32h4.32l1.42-4.32a16.32,16.32,0,0,0,3.14-1.29l4,1.93,3-3-2.06-4A15.67,15.67,0,0,0,317,392l4.22-1.28v-4.32l-4.32-1.42a15.41,15.41,0,0,0-1.28-3.11l1.92-4-3-3-4,2a16.55,16.55,0,0,0-3.14-1.28l-1.29-4.32Zm2.16,9.72a7.57,7.57,0,1,1-7.56,7.57A7.52,7.52,0,0,1,304,380.94Z" transform="translate(-286.17 -370.72)" />
</svg>
