<svg class="database" data-name="database" xmlns="http://www.w3.org/2000/svg" viewBox="0 0 42.76 77.25">
  <g class="database-stack">
    <g class="database-stack-front">
      <path d="M326,414.83l0,7.12c0,2.92-1.93,5.85-5.77,8.08-7.74,4.49-20.32,4.49-28.11,0-3.91-2.26-5.87-5.23-5.86-8.19l0-7.12c0,3,1.95,5.93,5.86,8.19,7.79,4.5,20.37,4.5,28.11,0,3.84-2.23,5.76-5.15,5.77-8.08Z" transform="translate(-284.73 -357.65)" class=/>
    </g>
    <g class="database-stack-top">
      <path d="M320.13,406.64c7.78,4.49,7.82,11.78.09,16.27s-20.32,4.5-28.11,0-7.82-11.77-.08-16.27S312.35,402.14,320.13,406.64Z" transform="translate(-284.73 -357.65)" class=/>
    </g>
  </g>
  <g class="database-stack" data-name="database-stack">
    <g class="database-stack-front" data-name="database-stack-front">
      <path d="M326,406l0,7.11c0,2.93-1.93,5.85-5.77,8.09-7.74,4.49-20.32,4.49-28.11,0-3.91-2.26-5.87-5.23-5.86-8.19l0-7.12c0,3,1.95,5.93,5.86,8.19,7.79,4.5,20.37,4.5,28.11,0,3.84-2.23,5.76-5.15,5.77-8.08Z" transform="translate(-284.73 -357.65)" class=/>
    </g>
    <g class="database-stack-top" data-name="database-stack-top">
      <path d="M320.13,397.81c7.78,4.5,7.82,11.79.09,16.28s-20.32,4.5-28.11,0-7.82-11.78-.08-16.27S312.35,393.32,320.13,397.81Z" transform="translate(-284.73 -357.65)" class=/>
    </g>
  </g>
  <g class="database-stack" data-name="database-stack">
    <g class="database-stack-front" data-name="database-stack-front">
      <path d="M326,397.19l0,7.11c0,2.93-1.93,5.85-5.77,8.08-7.74,4.5-20.32,4.5-28.11,0-3.91-2.26-5.87-5.22-5.86-8.19l0-7.11c0,3,1.95,5.93,5.86,8.19,7.79,4.49,20.37,4.49,28.11,0,3.84-2.23,5.76-5.16,5.77-8.08Z" transform="translate(-284.73 -357.65)" class=/>
    </g>
    <g class="database-stack-top" data-name="database-stack-top">
      <path d="M320.13,389c7.78,4.5,7.82,11.79.09,16.28s-20.32,4.49-28.11,0S284.29,393.49,292,389,312.35,384.5,320.13,389Z" transform="translate(-284.73 -357.65)" class=/>
    </g>
  </g>
  <g class="database-stack" data-name="database-stack">
    <g class="database-stack-front" data-name="database-stack-front">
      <path d="M326,388.36l0,7.12c0,2.93-1.93,5.85-5.77,8.08-7.74,4.5-20.32,4.5-28.11,0-3.91-2.26-5.87-5.23-5.86-8.19l0-7.11c0,3,1.95,5.93,5.86,8.19,7.79,4.49,20.37,4.49,28.11,0,3.84-2.24,5.76-5.16,5.77-8.09Z" transform="translate(-284.73 -357.65)" class=/>
    </g>
    <g class="database-stack-top" data-name="database-stack-top">
      <path d="M320.13,380.17c7.78,4.49,7.82,11.78.09,16.28s-20.32,4.49-28.11,0-7.82-11.78-.08-16.28S312.35,375.68,320.13,380.17Z" transform="translate(-284.73 -357.65)" class=/>
    </g>
  </g>
  <g class="database-stack" data-name="database-stack">
    <g class="database-stack-front" data-name="database-stack-front">
      <path d="M326,379.54l0,7.11c0,2.93-1.93,5.86-5.77,8.09-7.74,4.49-20.32,4.49-28.11,0-3.91-2.26-5.87-5.23-5.86-8.19l0-7.12c0,3,1.95,5.93,5.86,8.19,7.79,4.5,20.37,4.5,28.11,0,3.84-2.23,5.76-5.15,5.77-8.08Z" transform="translate(-284.73 -357.65)" class=/>
    </g>
    <g class="database-stack-top" data-name="database-stack-top">
      <path d="M320.13,371.34c7.78,4.5,7.82,11.79.09,16.28s-20.32,4.5-28.11,0-7.82-11.78-.08-16.27S312.35,366.85,320.13,371.34Z" transform="translate(-284.73 -357.65)" class=/>
    </g>
  </g>
  <g class="database-stack" data-name="database-stack">
    <g class="database-stack-front" data-name="database-stack-front">
      <path d="M326,370.72l0,7.11c0,2.93-1.93,5.85-5.77,8.08-7.74,4.5-20.32,4.5-28.11,0-3.91-2.25-5.87-5.22-5.86-8.19l0-7.11c0,3,1.95,5.93,5.86,8.19,7.79,4.5,20.37,4.5,28.11,0,3.84-2.23,5.76-5.15,5.77-8.08Z" transform="translate(-284.73 -357.65)" class=/>
    </g>
    <g class="database-stack-top" data-name="database-stack-top">
      <path d="M320.13,362.52c7.78,4.5,7.82,11.79.09,16.28s-20.32,4.5-28.11,0S284.29,367,292,362.53,312.35,358,320.13,362.52Z" transform="translate(-284.73 -357.65)" class=/>
    </g>
  </g>
</svg>
