<svg class="database" data-name="database" xmlns="http://www.w3.org/2000/svg" viewBox="0 0 82.52 96.46">
  <g class="database-green">
    <g class="database-stack">
      <g class="database-stack-front">
        <path d="M306.11,405.62l0,7.12c0,2.92-1.93,5.85-5.77,8.08-7.74,4.49-20.32,4.49-28.1,0-3.92-2.26-5.87-5.23-5.87-8.19l0-7.12c0,3,1.95,5.93,5.87,8.19,7.78,4.5,20.36,4.5,28.1,0,3.84-2.23,5.76-5.15,5.77-8.08Z" transform="translate(-264.85 -348.45)" />
      </g>
      <g class="database-stack-top">
        <path d="M300.25,397.43c7.78,4.49,7.82,11.78.09,16.27s-20.32,4.5-28.1,0-7.83-11.77-.09-16.27S292.47,392.93,300.25,397.43Z" transform="translate(-264.85 -348.45)" />
      </g>
    </g>
    <g class="database-stack" data-name="database-stack">
      <g class="database-stack-front" data-name="database-stack-front">
        <path d="M306.11,396.8l0,7.11c0,2.93-1.93,5.85-5.77,8.09-7.74,4.49-20.32,4.49-28.1,0-3.92-2.26-5.87-5.23-5.87-8.19l0-7.12c0,3,1.95,5.93,5.87,8.19,7.78,4.5,20.36,4.5,28.1,0,3.84-2.23,5.76-5.15,5.77-8.08Z" transform="translate(-264.85 -348.45)" />
      </g>
      <g class="database-stack-top" data-name="database-stack-top">
        <path d="M300.25,388.6c7.78,4.5,7.82,11.79.09,16.28s-20.32,4.5-28.1,0-7.83-11.78-.09-16.27S292.47,384.11,300.25,388.6Z" transform="translate(-264.85 -348.45)" />
      </g>
    </g>
    <g class="database-stack" data-name="database-stack">
      <g class="database-stack-front" data-name="database-stack-front">
        <path d="M306.11,388l0,7.11c0,2.93-1.93,5.85-5.77,8.08-7.74,4.5-20.32,4.5-28.1,0-3.92-2.26-5.87-5.22-5.87-8.19l0-7.11c0,3,1.95,5.93,5.87,8.19,7.78,4.5,20.36,4.5,28.1,0,3.84-2.23,5.76-5.16,5.77-8.08Z" transform="translate(-264.85 -348.45)" />
      </g>
      <g class="database-stack-top" data-name="database-stack-top">
        <path d="M300.25,379.78c7.78,4.5,7.82,11.79.09,16.28s-20.32,4.5-28.1,0-7.83-11.78-.09-16.28S292.47,375.29,300.25,379.78Z" transform="translate(-264.85 -348.45)" />
      </g>
    </g>
    <g class="database-stack" data-name="database-stack">
      <g class="database-stack-front" data-name="database-stack-front">
        <path d="M306.11,379.15l0,7.12c0,2.93-1.93,5.85-5.77,8.08-7.74,4.5-20.32,4.5-28.1,0-3.92-2.26-5.87-5.23-5.87-8.19l0-7.11c0,3,1.95,5.93,5.87,8.19,7.78,4.49,20.36,4.49,28.1,0,3.84-2.24,5.76-5.16,5.77-8.09Z" transform="translate(-264.85 -348.45)" />
      </g>
      <g class="database-stack-top" data-name="database-stack-top">
        <path d="M300.25,371c7.78,4.49,7.82,11.78.09,16.28s-20.32,4.49-28.1,0-7.83-11.78-.09-16.28S292.47,366.47,300.25,371Z" transform="translate(-264.85 -348.45)" />
      </g>
    </g>
    <g class="database-stack" data-name="database-stack">
      <g class="database-stack-front" data-name="database-stack-front">
        <path d="M306.11,370.33l0,7.11c0,2.93-1.93,5.86-5.77,8.09-7.74,4.49-20.32,4.49-28.1,0-3.92-2.26-5.87-5.23-5.87-8.19l0-7.12c0,3,1.95,5.93,5.87,8.19,7.78,4.5,20.36,4.5,28.1,0,3.84-2.23,5.76-5.15,5.77-8.08Z" transform="translate(-264.85 -348.45)" />
      </g>
      <g class="database-stack-top" data-name="database-stack-top">
        <path d="M300.25,362.14c7.78,4.49,7.82,11.78.09,16.27s-20.32,4.5-28.1,0-7.83-11.77-.09-16.27S292.47,357.64,300.25,362.14Z" transform="translate(-264.85 -348.45)" />
      </g>
    </g>
    <g class="database-stack" data-name="database-stack">
      <g class="database-stack-front" data-name="database-stack-front">
        <path d="M306.11,361.51l0,7.11c0,2.93-1.93,5.85-5.77,8.09-7.74,4.49-20.32,4.49-28.1,0-3.92-2.26-5.87-5.23-5.87-8.2l0-7.11c0,3,1.95,5.93,5.87,8.19,7.78,4.5,20.36,4.5,28.1,0,3.84-2.23,5.76-5.15,5.77-8.08Z" transform="translate(-264.85 -348.45)" />
      </g>
      <g class="database-stack-top" data-name="database-stack-top">
        <path d="M300.25,353.31c7.78,4.5,7.82,11.79.09,16.28s-20.32,4.5-28.1,0-7.83-11.78-.09-16.27S292.47,348.82,300.25,353.31Z" transform="translate(-264.85 -348.45)" />
      </g>
    </g>
  </g>
  <g class="database-blue">
    <g class="database-stack" data-name="database-stack">
      <g class="database-stack-front" data-name="database-stack-front">
        <path d="M345.87,405.62l0,7.12c0,2.92-1.93,5.85-5.77,8.08-7.74,4.49-20.32,4.49-28.11,0-3.91-2.26-5.87-5.23-5.86-8.19l0-7.12c0,3,1.95,5.93,5.86,8.19,7.79,4.5,20.37,4.5,28.11,0,3.84-2.23,5.76-5.15,5.77-8.08Z" transform="translate(-264.85 -348.45)" />
      </g>
      <g class="database-stack-top" data-name="database-stack-top">
        <path d="M340,397.43c7.78,4.49,7.82,11.78.09,16.27s-20.32,4.5-28.11,0-7.82-11.77-.08-16.27S332.23,392.93,340,397.43Z" transform="translate(-264.85 -348.45)" />
      </g>
    </g>
    <g class="database-stack" data-name="database-stack">
      <g class="database-stack-front" data-name="database-stack-front">
        <path d="M345.87,396.8l0,7.11c0,2.93-1.93,5.85-5.77,8.09-7.74,4.49-20.32,4.49-28.11,0-3.91-2.26-5.87-5.23-5.86-8.19l0-7.12c0,3,1.95,5.93,5.86,8.19,7.79,4.5,20.37,4.5,28.11,0,3.84-2.23,5.76-5.15,5.77-8.08Z" transform="translate(-264.85 -348.45)" />
      </g>
      <g class="database-stack-top" data-name="database-stack-top">
        <path d="M340,388.6c7.78,4.5,7.82,11.79.09,16.28s-20.32,4.5-28.11,0-7.82-11.78-.08-16.27S332.23,384.11,340,388.6Z" transform="translate(-264.85 -348.45)" />
      </g>
    </g>
    <g class="database-stack" data-name="database-stack">
      <g class="database-stack-front" data-name="database-stack-front">
        <path d="M345.87,388l0,7.11c0,2.93-1.93,5.85-5.77,8.08-7.74,4.5-20.32,4.5-28.11,0-3.91-2.26-5.87-5.22-5.86-8.19l0-7.11c0,3,1.95,5.93,5.86,8.19,7.79,4.49,20.37,4.49,28.11,0,3.84-2.23,5.76-5.16,5.77-8.08Z" transform="translate(-264.85 -348.45)" />
      </g>
      <g class="database-stack-top" data-name="database-stack-top">
        <path d="M340,379.78c7.78,4.5,7.82,11.79.09,16.28s-20.32,4.49-28.11,0-7.82-11.78-.08-16.28S332.23,375.29,340,379.78Z" transform="translate(-264.85 -348.45)" />
      </g>
    </g>
    <g class="database-stack" data-name="database-stack">
      <g class="database-stack-front" data-name="database-stack-front">
        <path d="M345.87,379.15l0,7.12c0,2.93-1.93,5.85-5.77,8.08-7.74,4.5-20.32,4.5-28.11,0-3.91-2.26-5.87-5.23-5.86-8.19l0-7.11c0,3,1.95,5.93,5.86,8.19,7.79,4.49,20.37,4.49,28.11,0,3.84-2.24,5.76-5.16,5.77-8.09Z" transform="translate(-264.85 -348.45)" />
      </g>
      <g class="database-stack-top" data-name="database-stack-top">
        <path d="M340,371c7.78,4.49,7.82,11.78.09,16.28s-20.32,4.49-28.11,0-7.82-11.78-.08-16.28S332.23,366.47,340,371Z" transform="translate(-264.85 -348.45)" />
      </g>
    </g>
    <g class="database-stack" data-name="database-stack">
      <g class="database-stack-front" data-name="database-stack-front">
        <path d="M345.87,370.33l0,7.11c0,2.93-1.93,5.86-5.77,8.09-7.74,4.49-20.32,4.49-28.11,0-3.91-2.26-5.87-5.23-5.86-8.19l0-7.12c0,3,1.95,5.93,5.86,8.19,7.79,4.5,20.37,4.5,28.11,0,3.84-2.23,5.76-5.15,5.77-8.08Z" transform="translate(-264.85 -348.45)" />
      </g>
      <g class="database-stack-top" data-name="database-stack-top">
        <path d="M340,362.13c7.78,4.5,7.82,11.79.09,16.28s-20.32,4.5-28.11,0-7.82-11.78-.08-16.27S332.23,357.64,340,362.13Z" transform="translate(-264.85 -348.45)" />
      </g>
    </g>
    <g class="database-stack" data-name="database-stack">
      <g class="database-stack-front" data-name="database-stack-front">
        <path d="M345.87,361.51l0,7.11c0,2.93-1.93,5.85-5.77,8.09-7.74,4.49-20.32,4.49-28.11,0-3.91-2.26-5.87-5.23-5.86-8.2l0-7.11c0,3,1.95,5.93,5.86,8.19,7.79,4.5,20.37,4.5,28.11,0,3.84-2.23,5.76-5.15,5.77-8.08Z" transform="translate(-264.85 -348.45)" />
      </g>
      <g class="database-stack-top" data-name="database-stack-top">
        <path d="M340,353.31c7.78,4.5,7.82,11.79.09,16.28s-20.32,4.5-28.11,0-7.82-11.78-.08-16.27S332.23,348.82,340,353.31Z" transform="translate(-264.85 -348.45)" />
      </g>
    </g>
  </g>
  <g class="database-red">
    <g class="database-stack" data-name="database-stack">
      <g class="database-stack-front" data-name="database-stack-front">
        <path d="M326,424.83l0,7.12c0,2.92-1.93,5.85-5.77,8.08-7.74,4.49-20.32,4.49-28.11,0-3.91-2.26-5.87-5.23-5.86-8.19l0-7.12c0,3,1.95,5.93,5.86,8.19,7.79,4.5,20.37,4.5,28.11,0,3.84-2.23,5.76-5.15,5.77-8.08Z" transform="translate(-264.85 -348.45)" />
      </g>
      <g class="database-stack-top" data-name="database-stack-top">
        <path d="M320.13,416.64c7.78,4.49,7.82,11.78.09,16.27s-20.32,4.5-28.11,0-7.82-11.77-.08-16.27S312.35,412.14,320.13,416.64Z" transform="translate(-264.85 -348.45)" />
      </g>
    </g>
    <g class="database-stack" data-name="database-stack">
      <g class="database-stack-front" data-name="database-stack-front">
        <path d="M326,416l0,7.11c0,2.93-1.93,5.85-5.77,8.09-7.74,4.49-20.32,4.49-28.11,0-3.91-2.26-5.87-5.23-5.86-8.19l0-7.12c0,3,1.95,5.93,5.86,8.19,7.79,4.5,20.37,4.5,28.11,0,3.84-2.23,5.76-5.15,5.77-8.08Z" transform="translate(-264.85 -348.45)" />
      </g>
      <g class="database-stack-top" data-name="database-stack-top">
        <path d="M320.13,407.81c7.78,4.5,7.82,11.79.09,16.28s-20.32,4.5-28.11,0-7.82-11.78-.08-16.27S312.35,403.32,320.13,407.81Z" transform="translate(-264.85 -348.45)" />
      </g>
    </g>
    <g class="database-stack" data-name="database-stack">
      <g class="database-stack-front" data-name="database-stack-front">
        <path d="M326,407.19l0,7.11c0,2.93-1.93,5.85-5.77,8.08-7.74,4.5-20.32,4.5-28.11,0-3.91-2.26-5.87-5.22-5.86-8.19l0-7.11c0,3,1.95,5.93,5.86,8.19,7.79,4.49,20.37,4.49,28.11,0,3.84-2.23,5.76-5.16,5.77-8.08Z" transform="translate(-264.85 -348.45)" />
      </g>
      <g class="database-stack-top" data-name="database-stack-top">
        <path d="M320.13,399c7.78,4.5,7.82,11.79.09,16.28s-20.32,4.49-28.11,0S284.29,403.49,292,399,312.35,394.5,320.13,399Z" transform="translate(-264.85 -348.45)" />
      </g>
    </g>
    <g class="database-stack" data-name="database-stack">
      <g class="database-stack-front" data-name="database-stack-front">
        <path d="M326,398.36l0,7.12c0,2.93-1.93,5.85-5.77,8.08-7.74,4.5-20.32,4.5-28.11,0-3.91-2.26-5.87-5.23-5.86-8.19l0-7.11c0,3,1.95,5.93,5.86,8.19,7.79,4.49,20.37,4.49,28.11,0,3.84-2.24,5.76-5.16,5.77-8.09Z" transform="translate(-264.85 -348.45)" />
      </g>
      <g class="database-stack-top" data-name="database-stack-top">
        <path d="M320.13,390.17c7.78,4.49,7.82,11.78.09,16.28s-20.32,4.49-28.11,0-7.82-11.78-.08-16.28S312.35,385.68,320.13,390.17Z" transform="translate(-264.85 -348.45)" />
      </g>
    </g>
    <g class="database-stack" data-name="database-stack">
      <g class="database-stack-front" data-name="database-stack-front">
        <path d="M326,389.54l0,7.11c0,2.93-1.93,5.86-5.77,8.09-7.74,4.49-20.32,4.49-28.11,0-3.91-2.26-5.87-5.23-5.86-8.19l0-7.12c0,3,1.95,5.93,5.86,8.19,7.79,4.5,20.37,4.5,28.11,0,3.84-2.23,5.76-5.15,5.77-8.08Z" transform="translate(-264.85 -348.45)" />
      </g>
      <g class="database-stack-top" data-name="database-stack-top">
        <path d="M320.13,381.34c7.78,4.5,7.82,11.79.09,16.28s-20.32,4.5-28.11,0-7.82-11.78-.08-16.27S312.35,376.85,320.13,381.34Z" transform="translate(-264.85 -348.45)" />
      </g>
    </g>
    <g class="database-stack" data-name="database-stack">
      <g class="database-stack-front" data-name="database-stack-front">
        <path d="M326,380.72l0,7.11c0,2.93-1.93,5.85-5.77,8.08-7.74,4.5-20.32,4.5-28.11,0-3.91-2.25-5.87-5.22-5.86-8.19l0-7.11c0,3,1.95,5.93,5.86,8.19,7.79,4.5,20.37,4.5,28.11,0,3.84-2.23,5.76-5.15,5.77-8.08Z" transform="translate(-264.85 -348.45)" />
      </g>
      <g class="database-stack-top" data-name="database-stack-top">
        <path d="M320.13,372.52c7.78,4.5,7.82,11.79.09,16.28s-20.32,4.5-28.11,0S284.29,377,292,372.53,312.35,368,320.13,372.52Z" transform="translate(-264.85 -348.45)" />
      </g>
    </g>
  </g>
</svg>
