<svg class="pie-chart" data-name="pie-chart" xmlns="http://www.w3.org/2000/svg" xmlns="http://www.w3.org/1999/xlink" viewBox="0 0 80 62.7" >
	<path class="pie-segment-right" d="M47.1,20.2l8.7-6.9c6.1,8.2,7.7,19,4.1,28.6l-10-4.2C51.9,31.8,50.8,25.2,47.1,20.2L47.1,20.2z" />
	<path class="pie-segment-top" d="M12.6,30.2c0.8-10.5,10.1-18.4,20.6-17.6c4.6,0.4,9,2.4,12.2,5.8l8.8-7C43.2-1.3,24-2.5,11.4,8.5C5.1,14,1.4,21.8,1,30.2L12.6,30.2z" />
	<path class="pie-segment-bottom" d="M12.6,32.6c0.5,10.6,9.5,18.7,20,18.2c7-0.3,13.2-4.4,16.3-10.7l10,4.2C51.8,59.5,33.7,66,18.5,58.9C8.2,54,1.5,43.9,1,32.6H12.6z" />
</svg>
